<svg xmlns="http://www.w3.org/2000/svg" viewBox="0 0 32 32"><style type="text/css">.st0{fill:#302E2B;}</style><path class="st0" d="M20.4,11.6c3.7,3.7,3.7,9.7,0,13.4l0,0l-4.2,4.2c-3.7,3.7-9.7,3.7-13.4,0s-3.7-9.7,0-13.4l2.3-2.3c0.6-0.6,1.7-0.2,1.7,0.7c0,1.1,0.2,2.2,0.6,3.3c0.1,0.4,0,0.8-0.2,1l-0.8,0.8c-1.8,1.8-1.8,4.6-0.1,6.4c1.8,1.8,4.6,1.8,6.4,0 l4.2-4.2c1.8-1.8,1.8-4.6,0-6.4c-0.2-0.2-0.5-0.4-0.6-0.5c-0.3-0.2-0.4-0.5-0.4-0.8c0-0.7,0.2-1.3,0.7-1.9l1.3-1.3c0.3-0.3,0.9-0.4,1.3-0.1C19.6,10.8,20,11.2,20.4,11.6L20.4,11.6z M29.2,2.8c-3.7-3.7-9.7-3.7-13.4,0L11.6,7l0,0c-3.7,3.7-3.7,9.7,0,13.4c0.4,0.4,0.8,0.8,1.3,1.1c0.4,0.3,0.9,0.2,1.3-0.1l1.3-1.3c0.5-0.5,0.8-1.2,0.7-1.9c0-0.3-0.2-0.6-0.4-0.8c-0.2-0.1-0.4-0.3-0.6-0.5c-1.8-1.8-1.8-4.6,0-6.4l4.2-4.2c1.8-1.8,4.6-1.8,6.4,0c1.7,1.8,1.7,4.6-0.1,6.4l-0.8,0.8c-0.3,0.3-0.4,0.7-0.2,1c0.4,1.1,0.6,2.2,0.6,3.3c0,0.9,1.1,1.3,1.7,0.7l2.3-2.3C32.9,12.5,32.9,6.5,29.2,2.8L29.2,2.8z"/></svg>
